<?xml version="1.0" encoding="utf-8"?>
<!-- Generator: Adobe Illustrator 22.0.0, SVG Export Plug-In . SVG Version: 6.00 Build 0)  -->
<svg version="1.1" id="圖層_1" xmlns="http://www.w3.org/2000/svg" xmlns:xlink="http://www.w3.org/1999/xlink" x="0px" y="0px"
	 viewBox="0 0 487.2 97.4" style="enable-background:new 0 0 487.2 97.4;" xml:space="preserve">
<style type="text/css">
	.st0{fill:#FFFFFF;}
</style>
<g id="Layer_x0020_1">
	<g id="_1932602954816">
		<path class="st0" d="M170.1,6.2h-41c-6,0-10.9,4.9-10.9,10.9V87v3.7h3.7h41c6,0,10.9-4.9,10.9-10.9V9.9V6.2H170.1z M261,6.5
			L261,6.5h41h3.7v3.7v69.9c0,9.6-7.8,11.1-15.2,11.1c-1.2,0-2.8-0.1-4.2-0.1c-0.9,0-1.8-0.1-2.8-0.1v-3.7v-3.7
			c0.7,0,1.9,0.1,3.1,0.1c1.1,0.1,2.3,0.1,3.9,0.1c3.8,0,7.8-0.5,7.8-3.8V13.8h-35.4H261h-0.1l0,0h0l0,0l0,0h0h0l0,0h0h0h0h0h0h0h0
			l0,0l0,0l0,0h0l0,0h0h0h0l0,0h0h0h0h0l0,0h0h0h0h0l0,0l0,0h0l0,0l0,0l0,0h0l0,0l0,0h0l0,0l0,0l0,0h0v0h0l0,0l0,0h0h0l0,0h0l0,0
			l0,0h0h0l0,0h0l0,0h0l0,0l0,0h0h0l0,0l0,0l0,0l0,0l-0.1,0l0,0h0v0h0l0,0h0l0,0l0,0l0,0l0,0l0,0l0,0l0,0h0l0,0l0,0l0,0l0,0l0,0l0,0
			v0h0l0,0h0v0l0,0h0v0h0l0,0h0v0l0,0h0l0,0l0,0l0,0l0,0l0,0l0,0l0,0l0,0l0,0l0,0l0,0l0,0l0,0l0,0l0,0c-0.6,0.6-1,1.5-1,2.5v69.9
			h-0.1V91h-3.6H250v-3.7V17.4c0-3,1.2-5.8,3.2-7.7C255.2,7.7,258,6.5,261,6.5z M234.4,6.3L234.4,6.3h-38.8
			c-5.6,0-10.2,4.6-10.2,10.2v36.9v3.7l0,0v33.5h7.4V57.1h35.1c5.6,0,10.2-4.6,10.2-10.2V10V6.3H234.4z M195.6,13.7L195.6,13.7h35.1
			v33.2c0,0.1,0,0.3,0,0.4l0,0v0.1l0,0l0,0l0,0v0v0h0v0v0l0,0.1v0l0,0v0l0,0v0l0,0.1l0,0l0,0.1l0,0l0,0.1h0l0,0.1l0,0l0,0l0,0
			l-0.1,0.1v0l0,0v0h0v0l0,0.1h0v0h0l0,0v0l0,0v0l0,0l0,0.1l0,0l-0.1,0.1v0l-0.1,0.1l-0.1,0.1l0,0.1l-0.1,0.1h0v0l-0.1,0l0,0l0,0
			l0,0l-0.1,0l0,0h0l0,0l-0.1,0l0,0l-0.1,0.1l0,0l-0.1,0l0,0l-0.1,0l0,0c-0.1,0-0.2,0.1-0.3,0.1l-0.1,0l0,0l-0.1,0h0l-0.1,0l0,0
			h-0.1l0,0c-0.1,0-0.3,0-0.4,0h-35.1V16.5c0-0.1,0-0.3,0-0.4V16l0,0l0-0.1l0-0.1l0,0v-0.1v0l0-0.1l0.1-0.2l0,0v0v0l0-0.1v0l0-0.1
			l0,0l0-0.1l0,0l0.1-0.1v0l0-0.1l0,0l0,0l0,0l0-0.1l0,0l0,0l0,0l0-0.1l0.1-0.1l0.1-0.1v0l0.1,0l0,0l0.1-0.1l0.1-0.1h0l0.1-0.1h0
			l0.1,0v0l0.1,0l0,0l0.1,0l0,0l0,0l0,0l0.1-0.1h0l0,0h0l0,0h0l0.1,0h0l0,0l0,0l0.1,0l0,0l0.1,0l0.1,0l0.1,0l0,0l0.1,0l0.1,0l0,0h0
			l0,0h0l0,0l0,0l0,0h0l0,0l0.1,0C195.4,13.7,195.5,13.7,195.6,13.7z M230.7,47.3L230.7,47.3L230.7,47.3L230.7,47.3z M230.7,47.4
			L230.7,47.4L230.7,47.4L230.7,47.4z M230.7,47.4L230.7,47.4L230.7,47.4L230.7,47.4z M230.7,47.5L230.7,47.5L230.7,47.5L230.7,47.5
			z M230.6,47.5L230.6,47.5L230.6,47.5L230.6,47.5z M230.6,47.6L230.6,47.6L230.6,47.6L230.6,47.6z M230.6,47.7L230.6,47.7
			L230.6,47.7L230.6,47.7z M230.6,47.7L230.6,47.7L230.6,47.7L230.6,47.7z M230.6,47.8L230.6,47.8L230.6,47.8L230.6,47.8z
			 M230.5,47.9L230.5,47.9L230.5,47.9L230.5,47.9z M230.5,48L230.5,48L230.5,48L230.5,48z M230.5,48L230.5,48L230.5,48L230.5,48z
			 M230.4,48.1L230.4,48.1L230.4,48.1L230.4,48.1z M230.4,48.2L230.4,48.2L230.4,48.2L230.4,48.2z M230.4,48.2L230.4,48.2
			L230.4,48.2L230.4,48.2z M230.3,48.3L230.3,48.3L230.3,48.3L230.3,48.3z M230.3,48.4L230.3,48.4L230.3,48.4L230.3,48.4z
			 M230.2,48.4L230.2,48.4L230.2,48.4L230.2,48.4z M230.2,48.4L230.2,48.4L230.2,48.4L230.2,48.4z M230.1,48.6L230.1,48.6
			L230.1,48.6L230.1,48.6z M230,48.7L230,48.7L230,48.7L230,48.7z M229.6,49.1L229.6,49.1L229.6,49.1L229.6,49.1z M229.5,49.2
			L229.5,49.2L229.5,49.2L229.5,49.2z M229.5,49.2L229.5,49.2L229.5,49.2L229.5,49.2z M229.4,49.3L229.4,49.3L229.4,49.3L229.4,49.3
			z M229.3,49.3L229.3,49.3L229.3,49.3L229.3,49.3z M229.3,49.3L229.3,49.3L229.3,49.3L229.3,49.3z M229,49.4L229,49.4L229,49.4
			L229,49.4z M228.6,49.6L228.6,49.6L228.6,49.6L228.6,49.6z M228.4,49.6L228.4,49.6L228.4,49.6L228.4,49.6z M228.3,49.6L228.3,49.6
			L228.3,49.6L228.3,49.6z M192.9,16.1L192.9,16.1L192.9,16.1L192.9,16.1L192.9,16.1L192.9,16.1z M192.9,15.9L192.9,15.9L192.9,15.9
			L192.9,15.9z M192.9,15.8L192.9,15.8L192.9,15.8L192.9,15.8z M193.1,15.4L193.1,15.4L193.1,15.4L193.1,15.4z M193.2,15.2
			L193.2,15.2L193.2,15.2L193.2,15.2z M193.2,15.1L193.2,15.1L193.2,15.1L193.2,15.1z M193.2,15.1L193.2,15.1L193.2,15.1L193.2,15.1
			z M193.3,15L193.3,15L193.3,15L193.3,15z M193.3,14.9L193.3,14.9L193.3,14.9L193.3,14.9z M193.5,14.7L193.5,14.7L193.5,14.7
			L193.5,14.7z M193.6,14.6L193.6,14.6L193.6,14.6L193.6,14.6z M193.8,14.4L193.8,14.4L193.8,14.4L193.8,14.4z M193.9,14.3
			L193.9,14.3L193.9,14.3L193.9,14.3z M194,14.2L194,14.2L194,14.2L194,14.2z M194.1,14.1L194.1,14.1L194.1,14.1L194.1,14.1z
			 M194.2,14.1L194.2,14.1L194.2,14.1L194.2,14.1z M194.2,14L194.2,14L194.2,14L194.2,14z M194.3,14L194.3,14L194.3,14L194.3,14z
			 M194.3,14L194.3,14L194.3,14L194.3,14z M194.5,13.9L194.5,13.9L194.5,13.9L194.5,13.9z M194.5,13.9L194.5,13.9L194.5,13.9
			L194.5,13.9z M195,13.8L195,13.8L195,13.8L195,13.8z M195,13.8L195,13.8L195,13.8L195,13.8z M195,13.8L195,13.8L195,13.8L195,13.8
			z M195.1,13.7L195.1,13.7L195.1,13.7L195.1,13.7z M195.1,13.7L195.1,13.7L195.1,13.7L195.1,13.7z M195.2,13.7L195.2,13.7
			l-66.1-0.2h37.3v66.2c0,0.3-0.1,0.9-0.1,0.9l-0.1,0.4l0,0v0v0l0,0v0l0,0.1l0,0l0,0.1h0l-0.1,0.3l0,0l0,0.1l0,0l-0.1,0.1l0,0
			l-0.1,0.1l0,0l0,0.1l0,0l0,0.1l0,0l0,0l0,0l0,0.1l0,0l0,0l0,0l0,0l0,0l0,0l-0.1,0.1l0,0l0,0l0,0l0,0l-0.1,0l0,0l0,0l0,0l0,0l0,0
			l-0.1,0l0,0l0,0h0l-0.1,0.1l0,0l-0.1,0.1l0,0l-0.1,0h0l-0.3,0.2l-0.1,0l0,0h0l-0.4,0.1h0h0l0,0h0v0c-0.3,0.1-0.6,0.1-0.9,0.1
			h-37.3V17.1c0-0.3,0.1-0.9,0.1-0.9l0.1-0.4l0,0v0v0l0,0v0l0,0l0,0l0-0.1l0,0l0.1-0.3l0,0l0-0.1l0,0l0.1-0.1l0,0l0.1-0.1v0l0,0l0,0
			l0-0.1l0,0l0,0v0l0,0l0,0l0,0l0-0.1h0l0,0l0,0l0.1-0.1l0,0l0,0v0l0,0l0.1-0.1l0,0l0,0h0l0,0l0,0l0.1,0l0,0l0,0h0l0.1-0.1l0,0
			l0.1-0.1l0,0l0.1,0l0,0l0.3-0.1l0.1,0l0,0l0,0l0.1,0l0.4-0.1l0,0h0h0l0,0l0,0c0.3-0.1,0.6-0.1,0.9-0.1L195.2,13.7z M166.1,81.1
			L166.1,81.1L166.1,81.1L166.1,81.1z M166.1,81.2L166.1,81.2L166.1,81.2L166.1,81.2z M166.1,81.2L166.1,81.2L166.1,81.2L166.1,81.2
			z M165.9,81.5L165.9,81.5L165.9,81.5L165.9,81.5z M165.9,81.6L165.9,81.6L165.9,81.6L165.9,81.6z M165.8,81.7L165.8,81.7
			L165.8,81.7L165.8,81.7z M165.7,81.8L165.7,81.8L165.7,81.8L165.7,81.8z M165.6,81.9L165.6,81.9L165.6,81.9L165.6,81.9z M165.6,82
			L165.6,82L165.6,82L165.6,82z M165.6,82L165.6,82L165.6,82L165.6,82z M165.4,82.2L165.4,82.2L165.4,82.2L165.4,82.2z M165.4,82.2
			L165.4,82.2L165.4,82.2L165.4,82.2z M165.3,82.3L165.3,82.3L165.3,82.3L165.3,82.3z M165.2,82.4L165.2,82.4L165.2,82.4L165.2,82.4
			z M165.1,82.5L165.1,82.5L165.1,82.5L165.1,82.5z M165,82.5L165,82.5L165,82.5L165,82.5z M165,82.6L165,82.6L165,82.6L165,82.6z
			 M164.9,82.6L164.9,82.6L164.9,82.6L164.9,82.6z M164.8,82.7L164.8,82.7L164.8,82.7L164.8,82.7z M164.7,82.8L164.7,82.8
			L164.7,82.8L164.7,82.8z M164.6,82.8L164.6,82.8L164.6,82.8L164.6,82.8z M164.2,83L164.2,83l-0.5,0.2v0v0L164.2,83z M125.8,15.8
			L125.8,15.8L125.8,15.8L125.8,15.8z M125.8,15.7L125.8,15.7L125.8,15.7L125.8,15.7z M125.9,15.6L125.9,15.6L125.9,15.6L125.9,15.6
			z M126,15.3L126,15.3L126,15.3L126,15.3z M126.1,15.3L126.1,15.3L126.1,15.3L126.1,15.3z M126.2,15.1L126.2,15.1L126.2,15.1
			L126.2,15.1z M126.2,15L126.2,15L126.2,15L126.2,15z M126.3,15L126.3,15L126.3,15L126.3,15z M126.3,14.9L126.3,14.9L126.3,14.9
			L126.3,14.9z M126.4,14.9L126.4,14.9L126.4,14.9L126.4,14.9z M126.5,14.7L126.5,14.7L126.5,14.7L126.5,14.7z M126.5,14.7
			L126.5,14.7L126.5,14.7L126.5,14.7z M126.6,14.5L126.6,14.5L126.6,14.5L126.6,14.5z M126.7,14.5L126.7,14.5L126.7,14.5L126.7,14.5
			z M126.8,14.4L126.8,14.4L126.8,14.4L126.8,14.4z M126.9,14.3L126.9,14.3L126.9,14.3L126.9,14.3z M127,14.3L127,14.3L127,14.3
			L127,14.3z M127,14.2L127,14.2L127,14.2L127,14.2z M127.1,14.2L127.1,14.2L127.1,14.2L127.1,14.2z M127.3,14.1L127.3,14.1
			L127.3,14.1L127.3,14.1z M127.3,14L127.3,14L127.3,14L127.3,14z M127.7,13.8L127.7,13.8L127.7,13.8L127.7,13.8z M128.2,13.7
			L128.2,13.7L128.2,13.7L128.2,13.7z"/>
	</g>
	<g id="_1932602954464">
		<path class="st0" d="M480.5,31.5c1.1,0,2.3,0.3,3.3,0.9c1.1,0.6,1.9,1.4,2.5,2.5c0.6,1.1,0.9,2.2,0.9,3.4c0,1.2-0.3,2.3-0.9,3.4
			c-0.6,1.1-1.4,1.9-2.5,2.5c-1.1,0.6-2.2,0.9-3.4,0.9c-1.2,0-2.3-0.3-3.4-0.9c-1.1-0.6-1.9-1.4-2.5-2.5c-0.6-1.1-0.9-2.2-0.9-3.4
			c0-1.2,0.3-2.3,0.9-3.4s1.4-1.9,2.5-2.5C478.2,31.8,479.3,31.5,480.5,31.5z M480.5,32.7L480.5,32.7c-0.9,0-1.9,0.2-2.8,0.7
			c-0.9,0.5-1.6,1.2-2.1,2.1c-0.5,0.9-0.8,1.9-0.8,2.8c0,1,0.3,1.9,0.8,2.8c0.5,0.9,1.2,1.6,2.1,2.1c0.9,0.5,1.8,0.8,2.8,0.8
			c1,0,1.9-0.2,2.8-0.8c0.9-0.5,1.6-1.2,2.1-2.1c0.5-0.9,0.8-1.8,0.8-2.8c0-1-0.3-1.9-0.8-2.8c-0.5-0.9-1.2-1.6-2.1-2.1
			C482.3,32.9,481.4,32.7,480.5,32.7z"/>
		<path class="st0" d="M483.2,40.6c-0.4-0.6-0.8-1.1-1.1-1.4c-0.2-0.2-0.4-0.3-0.6-0.4c0.6-0.1,1.1-0.3,1.5-0.7
			c0.4-0.4,0.6-0.9,0.6-1.4c0-0.4-0.1-0.7-0.4-1.1c-0.2-0.3-0.5-0.6-0.9-0.7c-0.4-0.1-1-0.2-1.9-0.2h-2.5V42h1.2V39h0.7
			c0.4,0,0.7,0.2,0.9,0.4c0.3,0.2,0.9,0.9,1.2,1.5c0.2,0.4,0.4,1.3,0.4,1.3h1.4C483.7,42,483.5,41.2,483.2,40.6z M480.6,37.9
			L480.6,37.9h-1.4v-2.2h1.3c0.6,0,1,0,1.2,0.1c0.2,0.1,0.4,0.2,0.5,0.4c0.1,0.2,0.2,0.4,0.2,0.6c0,0.3-0.1,0.6-0.4,0.8
			C481.7,37.8,481.2,37.9,480.6,37.9z"/>
	</g>
	<path class="st0" d="M341.4,60.5h-11.8v-2.4c0-2.1-0.1-3.3-0.4-3.9c-0.2-0.5-0.8-0.8-1.7-0.8c-0.8,0-1.3,0.2-1.7,0.7
		c-0.4,0.5-0.6,1.2-0.6,2.3c0,1.4,0.1,2.3,0.3,3c0.2,0.6,0.8,1.3,1.7,2.1c0.9,0.8,2.9,1.9,5.8,3.3c3.9,1.9,6.4,3.7,7.6,5.4
		c1.2,1.7,1.8,4.1,1.8,7.4c0,3.6-0.5,6.3-1.4,8.1c-0.9,1.8-2.5,3.3-4.7,4.2c-2.2,1-4.8,1.5-7.9,1.5c-3.4,0-6.3-0.5-8.7-1.6
		c-2.4-1.1-4.1-2.5-5-4.3c-0.9-1.8-1.4-4.5-1.4-8.2v-2.1h11.9v2.8c0,2.4,0.1,3.9,0.4,4.6c0.3,0.7,0.9,1,1.8,1c1,0,1.6-0.2,2-0.7
		c0.4-0.5,0.6-1.5,0.6-3c0-2.1-0.2-3.4-0.7-3.9c-0.5-0.5-3.1-2.1-7.8-4.7c-3.9-2.2-6.3-4.2-7.2-6c-0.9-1.8-1.3-3.9-1.3-6.4
		c0-3.5,0.5-6.1,1.4-7.8c0.9-1.7,2.5-3,4.7-3.9c2.2-0.9,4.8-1.4,7.7-1.4c2.9,0,5.4,0.4,7.5,1.1c2.1,0.8,3.6,1.7,4.7,3
		c1.1,1.2,1.7,2.3,2,3.4c0.2,1,0.3,2.7,0.3,4.9V60.5z M376.4,69.2L376.4,69.2H359v9.6c0,2,0.2,3.3,0.4,3.9s0.8,0.8,1.7,0.8
		c1,0,1.7-0.4,2.1-1.1c0.3-0.8,0.5-2.3,0.5-4.5v-5.6h12.7v3c0,2.7-0.2,4.8-0.5,6.3c-0.4,1.5-1.2,3-2.4,4.7c-1.3,1.7-2.9,2.9-4.8,3.7
		c-1.9,0.8-4.4,1.2-7.3,1.2c-2.9,0-5.4-0.4-7.5-1.2c-2.2-0.8-3.9-1.9-5.1-3.4c-1.2-1.4-2.1-3-2.5-4.7s-0.7-4.2-0.7-7.5V61.6
		c0-3.9,0.5-6.9,1.6-9.1s2.7-3.9,5.1-5.1c2.4-1.2,5.1-1.8,8.2-1.8c3.8,0,6.9,0.7,9.3,2.2c2.5,1.4,4.2,3.3,5.2,5.7
		c1,2.3,1.5,5.7,1.5,9.9V69.2z M363,62.1L363,62.1v-3.2c0-2.3-0.1-3.8-0.4-4.4c-0.3-0.7-0.8-1-1.5-1c-1,0-1.5,0.3-1.8,0.8
		c-0.2,0.6-0.4,2.1-0.4,4.6v3.2H363z M394.4,46.4L394.4,46.4l-0.2,3.4c1.4-1.6,2.1-2.2,3.5-3c1.4-0.8,3.2-1.2,5-1.2
		c2.3,0,4.2,0.6,5.6,1.6c1.5,1.1,2.4,2.5,2.8,4.1c0.4,1.6,0.6,4.4,0.6,8.2v30.9h-13.4V60c0-3-0.1-4.9-0.3-5.6c-0.2-0.7-0.8-1-1.7-1
		c-1,0-1.6,0.4-1.8,1.1c-0.2,0.8-0.4,2.8-0.4,6.2v29.9h-13.4V46.4H394.4z M443.8,60.5L443.8,60.5H432v-2.4c0-2.1-0.1-3.3-0.4-3.9
		c-0.2-0.5-0.8-0.8-1.7-0.8c-0.7,0-1.3,0.2-1.7,0.7c-0.4,0.5-0.6,1.2-0.6,2.3c0,1.4,0.1,2.3,0.3,3c0.2,0.6,0.7,1.3,1.7,2.1
		c0.9,0.8,2.9,1.9,5.8,3.3c3.9,1.9,6.4,3.7,7.6,5.4c1.2,1.7,1.8,4.1,1.8,7.4c0,3.6-0.4,6.3-1.4,8.1c-0.9,1.8-2.5,3.3-4.7,4.2
		c-2.2,1-4.8,1.5-7.9,1.5c-3.4,0-6.3-0.5-8.7-1.6c-2.4-1.1-4.1-2.5-5-4.3c-0.9-1.8-1.4-4.5-1.4-8.2v-2.1h11.9v2.8
		c0,2.4,0.2,3.9,0.4,4.6c0.3,0.7,0.9,1,1.8,1c1,0,1.6-0.2,2-0.7c0.4-0.5,0.6-1.5,0.6-3c0-2.1-0.2-3.4-0.7-3.9
		c-0.5-0.5-3.1-2.1-7.8-4.7c-3.9-2.2-6.3-4.2-7.2-6c-0.8-1.8-1.3-3.9-1.3-6.4c0-3.5,0.5-6.1,1.4-7.8c0.9-1.7,2.5-3,4.7-3.9
		c2.2-0.9,4.8-1.4,7.8-1.4c2.9,0,5.4,0.4,7.4,1.1c2.1,0.8,3.6,1.7,4.7,3c1.1,1.2,1.8,2.3,2,3.4c0.2,1,0.4,2.7,0.4,4.9V60.5z
		 M478.8,69.2L478.8,69.2h-17.4v9.6c0,2,0.1,3.3,0.4,3.9s0.8,0.8,1.7,0.8c1,0,1.7-0.4,2.1-1.1c0.4-0.8,0.5-2.3,0.5-4.5v-5.6h12.7v3
		c0,2.7-0.2,4.8-0.5,6.3c-0.3,1.5-1.1,3-2.4,4.7s-2.9,2.9-4.8,3.7c-1.9,0.8-4.4,1.2-7.3,1.2c-2.8,0-5.4-0.4-7.5-1.2
		c-2.2-0.8-3.9-1.9-5.1-3.4c-1.2-1.4-2.1-3-2.5-4.7c-0.5-1.7-0.7-4.2-0.7-7.5V61.6c0-3.9,0.5-6.9,1.6-9.1s2.7-3.9,5.1-5.1
		c2.4-1.2,5.1-1.8,8.2-1.8c3.8,0,6.9,0.7,9.3,2.2c2.4,1.4,4.2,3.3,5.1,5.7c1,2.3,1.5,5.7,1.5,9.9V69.2z M465.4,62.1L465.4,62.1v-3.2
		c0-2.3-0.1-3.8-0.4-4.4c-0.2-0.7-0.8-1-1.5-1c-1,0-1.5,0.3-1.8,0.8c-0.2,0.6-0.3,2.1-0.3,4.6v3.2H465.4z"/>
	<path class="st0" d="M94.7,9h-7.3V7.5H10.8c-0.3,0-0.6,0-0.9,0.1l0,0l0,0h0L9.5,7.7l-0.1,0l0,0l-0.1,0L9,8l0,0L9,8v0L8.8,8.1l0,0
		L8.7,8.2l0,0l0,0l0,0l-0.1,0l0,0l0,0v0l0,0l0,0l-0.1,0l0,0l0,0l0,0l0,0L8.2,8.6l0,0l0,0l0,0L8.2,8.7l0,0h0L8.1,8.8l0,0l0,0v0l0,0v0
		l0,0l0,0l0,0H0.3V8.5C1.4,3.6,5.7,0,10.8,0l0,0h84v7.4v0.1V9z"/>
	<polygon class="st0" points="87.5,7.5 94.7,3.6 94.7,7.4 94.7,7.5 94.7,11.1 87.5,15 87.5,15 	"/>
	<path class="st0" d="M2,4.7l6.7,3.6l-0.1,0l0,0l0,0v0l0,0l0,0l-0.1,0l0,0l0,0l0,0l0,0L8.2,8.6l0,0l0,0l0,0L8.2,8.7l0,0h0L8.1,8.8
		l0,0l0,0v0l0,0v0l0,0l0,0L7.9,9.1l0,0L7.8,9.2l0,0l0,0.1v0L7.6,9.6v0l0,0.1l0,0l0,0l0,0v0l-0.1,0.4c0,0-0.1,0.6-0.1,0.9l0,0V15
		L0,11.1v0C0,8.7,0.7,6.5,2,4.7z"/>
	<polygon class="st0" points="80.2,22.5 14.6,22.5 14.6,15 80.2,15 	"/>
	<path class="st0" d="M0,88.4h7.3v1.5H84l0,0c0.3,0,0.6,0,0.8-0.1h0l0,0l0,0l0.4-0.1l0,0l0,0l0.1,0l0.3-0.2l0,0l0.1,0h0l0.1-0.1l0,0
		l0.1-0.1v0l0.1,0l0,0l0.1,0l0,0l0,0l0,0l0.1,0l0,0l0.1-0.1l0,0v0l0,0l0,0l0.1-0.1v0l0,0l0,0l0-0.1l0,0l0,0l0-0.1l0,0l0,0l0,0l0-0.1
		l0,0l0-0.1h0l0,0h7.6v0.5c-1.1,4.9-5.4,8.5-10.5,8.5l0,0H0V90v-0.1V88.4z"/>
	<polygon class="st0" points="7.3,89.9 0,93.8 0,90 0,89.9 0,86.3 7.2,82.4 7.3,82.4 	"/>
	<path class="st0" d="M92.7,92.7l-6.7-3.6l0.1,0l0,0l0,0l0,0l0.1,0l0,0l0.1-0.1l0,0v0l0,0l0,0l0.1-0.1v0l0,0l0,0l0-0.1l0,0l0,0
		l0-0.1l0,0l0,0l0,0l0-0.1l0,0l0-0.1h0l0.1-0.1l0,0l0.1-0.1l0,0l0-0.1l0,0l0.1-0.3l0,0l0,0v0l0,0v0l0,0l0.1-0.4c0,0,0.1-0.6,0.1-0.9
		l0,0v-3.9l7.3,3.9v0C94.7,88.7,94,90.9,92.7,92.7z"/>
	<polygon class="st0" points="35.3,37.5 7.3,37.5 7.3,30 35.3,30 	"/>
	<polygon class="st0" points="21.2,37.5 7.3,30 7.3,30 21.4,30 35.3,37.4 35.3,37.5 	"/>
	<polygon class="st0" points="59.4,37.5 87.5,37.5 87.5,30 59.4,30 	"/>
	<polygon class="st0" points="73.6,37.5 87.5,30 87.5,30 73.3,30 59.4,37.4 59.4,37.5 	"/>
	<polygon class="st0" points="59.4,59.9 87.5,59.9 87.5,67.4 59.4,67.4 	"/>
	<polygon class="st0" points="73.6,59.9 87.5,67.4 87.5,67.4 73.3,67.4 59.4,60 59.4,59.9 	"/>
	<polygon class="st0" points="35.3,59.9 7.3,59.9 7.3,67.4 35.3,67.4 	"/>
	<polygon class="st0" points="21.2,59.9 7.3,67.4 7.3,67.4 21.4,67.4 35.3,60 35.3,59.9 	"/>
	<polygon class="st0" points="35.3,37.5 0,18.6 0,11.1 35.3,30 	"/>
	<polygon class="st0" points="59.4,37.5 94.7,18.6 94.7,11.1 59.4,30 	"/>
	<polygon class="st0" points="80.3,82.4 14.7,82.4 14.7,74.9 80.3,74.9 	"/>
	<polygon class="st0" points="59.4,59.9 94.7,78.8 94.7,86.3 59.4,67.4 	"/>
	<polygon class="st0" points="35.3,59.9 0,78.8 0,86.3 35.3,67.4 	"/>
	<polygon class="st0" points="94.7,44.9 73.4,44.9 80.1,41.3 80.1,33.8 59.4,44.9 59.4,44.9 59.4,44.9 59.4,52.4 59.4,52.4 
		59.4,52.4 59.4,52.4 80.2,63.5 80.2,56 73.4,52.4 94.7,52.4 	"/>
	<polygon class="st0" points="14.6,33.8 14.6,41.3 21.3,44.9 0,44.9 0,52.4 21.3,52.4 14.6,56 14.6,63.5 35.3,52.4 35.3,52.4 
		35.3,52.4 35.3,52.4 35.3,44.9 35.3,44.9 35.3,44.9 	"/>
</g>
</svg>
