<?xml version="1.0" encoding="utf-8"?>
<!-- Generator: Adobe Illustrator 22.0.0, SVG Export Plug-In . SVG Version: 6.00 Build 0)  -->
<svg version="1.1" id="圖層_1" xmlns:serif="http://www.serif.com/"
	 xmlns="http://www.w3.org/2000/svg" xmlns:xlink="http://www.w3.org/1999/xlink" x="0px" y="0px" viewBox="0 0 1920 1080"
	 style="enable-background:new 0 0 1920 1080;" xml:space="preserve">
<style type="text/css">
	.st0{fill:#FFFFFF;}
</style>
<g transform="matrix(1,0,0,1,0,-0.00415471)">
	<path class="st0" d="M1480.7,99.3h-80.3V82.6H555.2c-3.4,0-6.1,0.5-9.6,1.2h-0.2l-4.2,1.5l-0.7,0.2l-0.5,0.3l-0.7,0.5L536,88
		l-0.7,0.2v0.3l-1.5,0.7l-1.2,1l-0.5,0.5l-0.7,0.5l-0.5,0.2v0.3l-0.5,0.5l-0.7,0.5l-0.5,0.5l-0.5,0.5l-1.2,1.2l-0.3,0.5l-0.7,0.7
		l-0.5,0.2h0.2l-0.7,0.7l-0.2,0.2v0.3l-0.5,0.5v0.3l-0.5,0.5l-0.3,0.5h-84.3v-5.7C452.3,40.1,499.4,0,555.2,0h925.5V99.3z"/>
</g>
<g transform="matrix(1,0,0,1,0,-0.00415471)">
	<path class="st0" d="M1400.3,82.8l80.3-43.2v82.6l-80.1,43h-0.2V82.8z"/>
</g>
<g transform="matrix(1,0,0,1,0,-0.00415471)">
	<path class="st0" d="M458.6,51.3l73.5,39.3l-0.7,0.5l-0.5,0.2v0.3l-0.5,0.5l-0.7,0.5l-0.5,0.5l-0.5,0.5l-1.2,1.2l-0.3,0.5l-0.7,0.7
		l-0.5,0.2h0.2l-0.7,0.7l-0.2,0.2v0.3l-0.5,0.5v0.3l-0.5,0.5l-0.7,1.2l-0.2,0.2l-0.7,1.2l-0.5,0.7v0.2l-1.7,3v0.2l-0.2,0.7l-0.3,0.5
		l-0.2,0.5v0.3l-1.5,4.7c0-0.2-1.2,6.4-1.2,9.6v43.2l-80.3-43v-0.2C436.5,95.6,444.6,71.2,458.6,51.3z"/>
</g>
<g transform="matrix(1,0,0,1,0,-0.00415471)">
	<rect x="597.2" y="165.1" class="st0" width="722.8" height="82.6"/>
</g>
<g transform="matrix(1,0,0,1,0,-0.00415471)">
	<path class="st0" d="M436.5,973.9h80.3v16.5H1362c3.4,0,6.1-0.2,9.3-1.2h0.3l4.4-1.5l0.5-0.3l0.5-0.2l1-0.2l3-1.7l0.7-0.5h0.2
		l1.2-1l1.2-0.7v-0.2l0.7-0.5l0.7-0.5l0.2-0.3l0.7-0.5l0.7-0.7l0.2-0.2v-0.3l0.5-0.2l1.2-1.2v-0.2l0.5-0.2l0.5-0.7l0.5-0.5l0.5-0.7
		l0.3-0.3l0.5-0.7l0.5-0.7h0.2l0.2-0.2h84v5.7c-12.5,53.6-59.5,93.4-115.2,93.4H436.5v-81.6v-1V973.9z"/>
</g>
<g transform="matrix(1,0,0,1,0,-0.00415471)">
	<path class="st0" d="M516.9,990.4l-80.3,43v-42v-1v-39.6l79.8-43h0.5V990.4z"/>
</g>
<g transform="matrix(1,0,0,1,0,-0.00415471)">
	<path class="st0" d="M1458.6,1021.6l-73.5-39.3l0.7-0.5l0.2-0.3l0.7-0.5l0.7-0.7l0.2-0.2v-0.3l0.5-0.2l1.2-1.2v-0.2l0.5-0.2
		l0.5-0.7l0.5-0.5l0.5-0.7l0.3-0.3l0.5-0.7l0.5-0.7h0.2l0.7-1.2l1-1.5l0.5-0.7l1.5-3.2l0.2-0.3l0.2-0.5v-0.3l0.2-0.5v-0.3l0.3-0.2
		l1.5-4.7c0,0,1.2-6.6,1.2-9.8v-43l80.3,42.7v0.2C1480.4,977.3,1472.3,1001.6,1458.6,1021.6z"/>
</g>
<g transform="matrix(1,0,0,1,0,-0.00415471)">
	<rect x="516.9" y="330.2" class="st0" width="308.8" height="82.6"/>
</g>
<g transform="matrix(1,0,0,1,0,-0.00415471)">
	<path class="st0" d="M669.7,412.7l-152.8-82.1v-0.5h155.5l153.3,82.1v0.5H669.7z"/>
</g>
<g transform="matrix(1,0,0,1,0,-0.00415471)">
	<rect x="1091.3" y="330.2" class="st0" width="309.1" height="82.6"/>
</g>
<g transform="matrix(1,0,0,1,0,-0.00415471)">
	<path class="st0" d="M1247.3,412.7l153.1-82.1v-0.5h-155.8l-153.3,82.1v0.5H1247.3z"/>
</g>
<g transform="matrix(1,0,0,1,0,-0.00415471)">
	<rect x="1091.3" y="660.4" class="st0" width="309.1" height="82.6"/>
</g>
<g transform="matrix(1,0,0,1,0,-0.00415471)">
	<path class="st0" d="M1247.3,660.4l153.1,81.8v0.7h-155.8l-153.3-82.3v-0.2H1247.3z"/>
</g>
<g transform="matrix(1,0,0,1,0,-0.00415471)">
	<rect x="516.9" y="660.4" class="st0" width="308.8" height="82.6"/>
</g>
<g transform="matrix(1,0,0,1,0,-0.00415471)">
	<path class="st0" d="M669.7,660.4l-152.8,81.8v0.7h155.5l153.3-82.3v-0.2H669.7z"/>
</g>
<g transform="matrix(1,0,0,1,0,-0.00415471)">
	<path class="st0" d="M825.7,412.7L436.5,204.4v-82.5l389.2,208.3V412.7z"/>
</g>
<g transform="matrix(1,0,0,1,0,-0.00415471)">
	<path class="st0" d="M1091.3,412.7l389.4-208.3v-82.5l-389.4,208.3V412.7z"/>
</g>
<g transform="matrix(1,0,0,1,0,-0.00415471)">
	<rect x="598.7" y="825.5" class="st0" width="722.8" height="82.3"/>
</g>
<g transform="matrix(1,0,0,1,0,-0.00415471)">
	<path class="st0" d="M1091.3,660.4l389.4,208.1V951l-389.4-208.1V660.4z"/>
</g>
<g transform="matrix(1,0,0,1,0,-0.00415471)">
	<path class="st0" d="M825.7,660.4L436.5,868.5V951l389.2-208.1V660.4z"/>
</g>
<g transform="matrix(1,0,0,1,0,-0.00415471)">
	<path class="st0" d="M1480.7,495.3h-235.1l74.2-39.8V373l-228.5,122.3v82.5h0.2L1320,700v-82.6l-74.2-39.6h234.9V495.3z"/>
</g>
<g transform="matrix(1,0,0,1,0,-0.00415471)">
	<path class="st0" d="M597.2,373v82.5l74.4,39.8H436.5v82.5h234.9l-74.2,39.6V700l228.5-122.1v-0.2v-82.3L597.2,373z"/>
</g>
</svg>
